<svg width="97" height="56" viewBox="0 0 97 56" fill="none" xmlns="http://www.w3.org/2000/svg">
<g clip-path="url(#clip0_7_227)">
<path d="M18.2964 14.52C19.4164 13.08 20.2164 11.16 19.9764 9.23999C18.2964 9.31999 16.2964 10.36 15.0964 11.72C14.0564 12.92 13.0964 14.92 13.3364 16.76C15.2564 17 17.0964 15.96 18.2964 14.52ZM19.9764 17.24C17.2564 17.08 14.9364 18.76 13.6564 18.76C12.3764 18.76 10.3764 17.32 8.21641 17.32C5.41641 17.4 2.85641 18.92 1.41641 21.48C-1.46359 26.52 0.616407 33.96 3.49641 38.04C4.85641 40.04 6.53641 42.28 8.69641 42.2C10.7764 42.12 11.5764 40.84 14.0564 40.84C16.5364 40.84 17.2564 42.2 19.4964 42.12C21.7364 42.04 23.1764 40.12 24.5364 38.04C26.1364 35.72 26.7764 33.48 26.7764 33.4C26.6964 33.32 22.3764 31.72 22.3764 26.76C22.2964 22.6 25.7364 20.6 25.8964 20.52C24.0564 17.64 21.0164 17.32 19.9764 17.24Z" fill="#CCCCCC"/>
<path d="M43.4964 11.5599C49.4164 11.5599 53.4964 15.6399 53.4964 21.4799C53.4964 27.3999 49.3364 31.4799 43.3364 31.4799H36.8564V41.7999H32.1364V11.5599H43.4964ZM36.8564 27.5599H42.2164C46.2964 27.5599 48.6164 25.3199 48.6164 21.5599C48.6164 17.7199 46.2964 15.5599 42.2164 15.5599H36.7764V27.5599H36.8564ZM54.6964 35.6399C54.6964 31.7999 57.6564 29.3999 62.9364 29.0799L69.0164 28.7599V27.0799C69.0164 24.5999 67.3364 23.1599 64.6164 23.1599C61.9764 23.1599 60.3764 24.4399 59.9764 26.3599H55.6564C55.8964 22.3599 59.3364 19.3999 64.7764 19.3999C70.1364 19.3999 73.5764 22.1999 73.5764 26.6799V41.8799H69.2564V38.2799H69.1764C67.8964 40.7599 65.0964 42.2799 62.2164 42.2799C57.7364 42.2799 54.6964 39.5599 54.6964 35.6399ZM69.0164 33.6399V31.8799L63.5764 32.1999C60.8564 32.3599 59.3364 33.5599 59.3364 35.4799C59.3364 37.3999 60.9364 38.6799 63.3364 38.6799C66.5364 38.6799 69.0164 36.5199 69.0164 33.6399ZM77.5764 50.0399V46.3599C77.8964 46.4399 78.6964 46.4399 79.0164 46.4399C81.0964 46.4399 82.2164 45.5599 82.9364 43.3199C82.9364 43.2399 83.3364 41.9599 83.3364 41.9599L75.3364 19.8799H80.2164L85.8164 37.8799H85.8964L91.4964 19.8799H96.2964L88.0564 43.1599C86.1364 48.5199 83.9764 50.1999 79.4164 50.1999C79.0964 50.1199 77.9764 50.1199 77.5764 50.0399Z" fill="#CCCCCC"/>
</g>
<defs>
<clipPath id="clip0_7_227">
<rect width="96" height="56" fill="white" transform="translate(0.0563965)"/>
</clipPath>
</defs>
</svg>
