<svg width="43" height="43" viewBox="0 0 43 43" fill="none" xmlns="http://www.w3.org/2000/svg">
<path fill-rule="evenodd" clip-rule="evenodd" d="M21.8475 42C33.3612 42 42.6949 32.8218 42.6949 21.5C42.6949 10.1782 33.3612 1 21.8475 1C10.3337 1 1 10.1782 1 21.5C1 32.8218 10.3337 42 21.8475 42Z" fill="white" stroke="#C1C0C0" stroke-width="0.3"/>
<path fill-rule="evenodd" clip-rule="evenodd" d="M24.6309 17.2445C24.3054 17.1432 23.9311 17.0757 23.5894 17.0757C23.1662 17.0757 22.2549 17.3626 22.2549 17.9195V19.2527H24.4194V21.4971H22.2549V27.6905H20.0741V21.4971H19V19.2527H20.0741V18.122C20.0741 16.4176 20.8227 15 22.6292 15C23.2476 15 24.3543 15.0338 24.9564 15.2531L24.6309 17.2445Z" fill="#3E86F5" stroke="#3E86F5"/>
</svg>
