<svg width="48" height="47" viewBox="0 0 48 47" fill="none" xmlns="http://www.w3.org/2000/svg">
<path fill-rule="evenodd" clip-rule="evenodd" d="M24 46C36.637 46 46.8814 35.9264 46.8814 23.5C46.8814 11.0736 36.637 1 24 1C11.363 1 1.11865 11.0736 1.11865 23.5C1.11865 35.9264 11.363 46 24 46Z" fill="white" stroke="#C1C0C0" stroke-width="0.3"/>
<g clip-path="url(#clip0_24_148)">
<rect x="16.3729" y="15" width="16.2712" height="16" rx="3" fill="#3E86F5"/>
<path d="M30.2606 15H18.7563C17.4422 15 16.3729 16.0516 16.3729 17.3438V28.6562C16.3729 29.9487 17.4422 31 18.7563 31H30.2606C31.575 31 32.6441 29.9487 32.6441 28.6562V17.3438C32.6441 16.0516 31.575 15 30.2606 15ZM31.6907 28.6562C31.6907 29.4316 31.049 30.0625 30.2606 30.0625H18.7563C17.9679 30.0625 17.3263 29.4316 17.3263 28.6562V17.3438C17.3263 16.5684 17.9679 15.9375 18.7563 15.9375H30.2606C31.049 15.9375 31.6907 16.5684 31.6907 17.3438V28.6562Z" fill="white"/>
<path d="M29.7521 16.9062C29.2265 16.9062 28.7987 17.3269 28.7987 17.8438C28.7987 18.3606 29.2265 18.7812 29.7521 18.7812C30.2777 18.7812 30.7055 18.3606 30.7055 17.8438C30.7055 17.3269 30.2777 16.9062 29.7521 16.9062Z" fill="white"/>
<path d="M24.5085 18.7812C22.1428 18.7812 20.2182 20.6737 20.2182 23C20.2182 25.3263 22.1428 27.2188 24.5085 27.2188C26.8741 27.2188 28.7987 25.3263 28.7987 23C28.7987 20.6737 26.8741 18.7812 24.5085 18.7812ZM24.5085 26.2812C22.6684 26.2812 21.1716 24.8094 21.1716 23C21.1716 21.1906 22.6684 19.7188 24.5085 19.7188C26.3485 19.7188 27.8453 21.1906 27.8453 23C27.8453 24.8094 26.3485 26.2812 24.5085 26.2812Z" fill="white"/>
</g>
<defs>
<clipPath id="clip0_24_148">
<rect x="16.3729" y="15" width="16.2712" height="16" rx="3" fill="white"/>
</clipPath>
</defs>
</svg>
