<svg width="109" height="48" viewBox="0 0 109 48" fill="none" xmlns="http://www.w3.org/2000/svg">
<path fill-rule="evenodd" clip-rule="evenodd" d="M89.5852 10.0374L86.1739 30.085H80.6749L81.2316 26.8129C80.2573 28.2047 79.1432 29.2499 78.0993 29.8762C76.9853 30.5025 75.8022 30.8505 74.4097 30.8505C72.1815 30.8505 70.5119 29.8762 69.537 27.927C68.4919 25.9778 68.2831 23.332 68.8405 20.0606C69.3972 16.7885 70.5113 14.2136 72.2517 12.2644C73.9922 10.3848 76.0806 9.40985 78.5163 9.40985C79.7702 9.40985 80.8134 9.68822 81.6486 10.3848C82.4141 11.0111 83.0404 11.986 83.5282 13.3083L84.0849 10.0368H89.5852V10.0374ZM82.6241 20.0612C82.9031 18.4606 82.7639 17.2073 82.2065 16.302C81.6498 15.3973 80.7451 14.9797 79.5608 14.9797C78.3081 14.9797 77.2649 15.3973 76.4285 16.302C75.5934 17.2073 75.0367 18.4606 74.7583 20.0612C74.4793 21.5928 74.6185 22.8455 75.1758 23.7502C75.7326 24.5865 76.6373 25.0731 77.8204 25.0731C79.0047 25.0731 80.0486 24.5865 80.9539 23.7502C81.7896 22.8455 82.3463 21.5922 82.6241 20.0612ZM52.623 30.085H58.5396L60.0016 21.801C60.2794 19.8518 60.9759 18.3904 61.9508 17.2763C62.9251 16.2318 64.1088 15.7446 65.5696 15.7446C65.9182 15.7446 66.1972 15.7446 66.5452 15.8142C66.8925 15.8838 67.2405 16.023 67.5891 16.1622L69.2593 9.68822C68.9815 9.68822 68.7727 9.61863 68.4938 9.61863H67.7985C66.4066 9.61863 65.0837 10.0362 63.9007 10.8719C62.7866 11.7766 61.7427 13.0299 60.907 14.7697L61.6725 10.0362H56.0343L52.623 30.085ZM39.0488 30.085H45.7315L49.5603 6.69576H100.097L103.369 0.987951H17.4006L16.2169 6.69576H42.808L39.0488 30.085ZM12.5975 30.085L16.0082 10.0374H21.5078L20.8113 14.0744C21.8552 12.4738 22.9692 11.2907 24.1529 10.5246C25.336 9.75906 26.6589 9.41047 28.1203 9.41047C29.2338 9.41047 30.1397 9.61925 30.9046 10.0374C31.7404 10.455 32.2971 11.0117 32.7146 11.8474C33.0626 12.4738 33.2018 13.3095 33.2714 14.2838C33.2714 15.2581 33.1322 16.7201 32.7842 18.5998L30.835 30.0856H24.8489L26.6589 19.3659C26.9372 17.7646 26.9372 16.5816 26.5893 15.885C26.3109 15.1195 25.615 14.7716 24.6401 14.7716C23.3868 14.7716 22.4125 15.3283 21.647 16.3728C20.8815 17.4863 20.3247 19.2267 19.9072 21.6631L18.4458 30.0862H12.5975V30.085ZM5.84521 6.69576L7.09849 0.779175H13.0847L11.901 6.69576H5.84521ZM2.01639 30.085L5.42765 10.0374H11.4138L8.00319 30.085H2.01639ZM0.973129 45.7476L2.08661 45.6773C2.08661 45.9563 2.1562 46.0949 2.36497 46.2341C2.50416 46.3739 2.78253 46.4429 3.13049 46.4429C3.47845 46.4429 3.75682 46.3739 3.96622 46.3031C4.17499 46.1645 4.24459 46.0253 4.31418 45.8855C4.31418 45.8165 4.31418 45.7469 4.24459 45.6767C4.17562 45.6078 4.03581 45.5369 3.89662 45.468C3.75682 45.468 3.47845 45.399 3.0609 45.3281C2.50416 45.1896 2.08661 45.0504 1.87721 44.9106C1.59884 44.7018 1.52925 44.4241 1.59884 44.1451C1.66843 43.9363 1.80761 43.7275 2.01639 43.5883C2.1562 43.3796 2.43395 43.241 2.78191 43.1708C3.06028 43.0322 3.47783 43.0322 3.896 43.0322C4.52233 43.0322 5.00948 43.1012 5.35806 43.31C5.63643 43.5877 5.70602 43.8667 5.63643 44.2153H4.52295C4.52295 44.0065 4.52295 43.8667 4.38377 43.7977C4.24459 43.7275 3.96622 43.6579 3.68785 43.6579C3.33989 43.6579 3.13111 43.7269 2.92171 43.7977C2.79747 43.8521 2.69829 43.9512 2.64396 44.0755C2.64396 44.1445 2.64396 44.2153 2.78315 44.2843C2.92233 44.4241 3.2007 44.493 3.68847 44.562C4.24521 44.6322 4.59317 44.772 4.80194 44.841C5.08031 44.9808 5.2195 45.0498 5.35868 45.2585C5.42828 45.3984 5.42828 45.6071 5.42828 45.8849C5.35868 46.0937 5.2195 46.3024 5.01072 46.5112C4.73235 46.7212 4.45398 46.8598 4.17562 46.93C3.82703 47.0686 3.40948 47.1388 2.92171 47.1388C2.22641 47.1388 1.73864 46.999 1.39068 46.7902C1.11169 46.5118 0.973129 46.1651 0.973129 45.7476ZM7.0289 43.1018H8.14237L7.58501 45.2598C7.51542 45.5375 7.44583 45.8165 7.44583 45.8861C7.44583 46.0259 7.51542 46.1651 7.7242 46.3037C7.86338 46.3739 8.07278 46.4435 8.42012 46.4435C8.69849 46.4435 8.97686 46.3745 9.11604 46.3037C9.32482 46.1651 9.46463 46.0949 9.53422 45.9563C9.60381 45.8165 9.6734 45.6078 9.74299 45.2598L10.2301 43.1018H11.3442L10.8571 45.1902C10.7173 45.6078 10.6483 45.9557 10.5085 46.1645C10.4389 46.3733 10.2301 46.5118 10.091 46.651C9.8828 46.7908 9.60381 46.93 9.32544 46.9996C9.04707 47.0692 8.69911 47.1394 8.28156 47.1394C7.88257 47.145 7.48457 47.098 7.09787 46.9996C6.88909 46.8598 6.68031 46.7908 6.54113 46.651C6.40132 46.5112 6.40132 46.3733 6.33235 46.1645C6.33235 45.9557 6.40195 45.6078 6.47216 45.1902L7.0289 43.1018ZM11.553 45.7476L12.6671 45.6773C12.6671 45.9563 12.7367 46.0949 12.9455 46.2341C13.0847 46.3739 13.363 46.4429 13.711 46.4429C14.059 46.4429 14.3373 46.3739 14.5461 46.3031C14.7549 46.1645 14.8245 46.0253 14.8941 45.8855C14.8941 45.8165 14.8941 45.7469 14.8245 45.6767C14.7549 45.6078 14.6853 45.5369 14.4759 45.468C14.3367 45.468 14.0583 45.399 13.6408 45.3281C13.084 45.1896 12.6665 45.0504 12.5273 44.9106C12.1787 44.7018 12.1091 44.4241 12.1787 44.1451C12.2483 43.9363 12.3875 43.7275 12.5273 43.5883C12.7361 43.3796 13.0138 43.241 13.3624 43.1708C13.6408 43.0322 13.9887 43.0322 14.4759 43.0322C15.1028 43.0322 15.59 43.1012 15.9379 43.31C16.2163 43.5877 16.2859 43.8667 16.2163 44.2153H15.1028C15.1028 44.0065 15.0332 43.8667 14.9637 43.7977C14.8245 43.7275 14.5461 43.6579 14.2677 43.6579C13.9198 43.6579 13.711 43.7269 13.5016 43.7977C13.3772 43.852 13.2778 43.9512 13.2232 44.0755C13.2232 44.1445 13.2232 44.2153 13.363 44.2843C13.5022 44.4241 13.7812 44.493 14.2684 44.562C14.8251 44.6322 15.1731 44.772 15.452 44.841C15.6608 44.9808 15.8 45.0498 15.9392 45.2585C16.0088 45.3984 16.0784 45.6071 16.0088 45.8849C15.9392 46.0937 15.8 46.3024 15.5912 46.5112C15.3129 46.7212 15.0345 46.8598 14.7555 46.93C14.4075 47.0686 13.99 47.1388 13.5022 47.1388C12.8063 47.1388 12.3191 46.999 11.9712 46.7902C11.6928 46.5118 11.553 46.1651 11.553 45.7476ZM16.6345 47.0692L17.6088 43.1018H19.3492C20.0458 43.1018 20.4627 43.1018 20.6715 43.1708C20.9498 43.1708 21.1592 43.3106 21.368 43.5194C21.5072 43.7281 21.5768 44.0071 21.5072 44.2849C21.4499 44.5213 21.3297 44.7377 21.1592 44.9112C20.9504 45.051 20.8106 45.1902 20.6025 45.3288C20.3937 45.399 20.1849 45.4686 19.9762 45.4686C19.6978 45.5375 19.2802 45.5375 18.7931 45.5375H18.0972L17.7486 47.0692H16.6345ZM18.5147 43.7281L18.2364 44.9112H18.8621C19.2802 44.9112 19.6282 44.8422 19.7674 44.8422C19.9066 44.7733 20.0458 44.7024 20.116 44.6335C20.2551 44.4937 20.3241 44.4247 20.3241 44.2849C20.3937 44.1451 20.3241 44.0761 20.2545 43.9363C20.1849 43.8673 20.0458 43.7977 19.837 43.7977C19.7674 43.7275 19.4884 43.7275 19.0708 43.7275H18.5147V43.7281ZM21.716 47.0692L22.6909 43.1018H26.7278L26.5887 43.7281H23.5956L23.3868 44.6335H26.1711L25.9623 45.2598H23.2476L22.9692 46.3739H26.0319L25.8231 47.0692H21.716ZM26.7974 47.0692L27.7724 43.1018H28.8169L30.4175 45.7476L31.1134 43.1018H32.0877L31.1134 47.0692H29.9999L28.4689 44.4937L27.8419 47.0692H26.7974ZM32.2971 45.7476L33.4106 45.6773C33.4106 45.9563 33.4802 46.0949 33.6889 46.2341C33.8281 46.3739 34.1065 46.4429 34.4545 46.4429C34.7387 46.4429 35.0209 46.3957 35.2896 46.3031C35.4983 46.1645 35.5679 46.0253 35.6375 45.8855C35.6375 45.8165 35.6375 45.7469 35.5679 45.6767C35.4983 45.6078 35.4287 45.5369 35.22 45.468C35.0802 45.468 34.8024 45.399 34.3842 45.3281C33.8275 45.1896 33.4099 45.0504 33.2708 44.9106C32.9222 44.7018 32.8532 44.4241 32.9222 44.1451C32.9963 43.9363 33.1153 43.7462 33.2708 43.5883C33.4795 43.3796 33.7579 43.241 34.1059 43.1708C34.3842 43.0322 34.8024 43.0322 35.22 43.0322C35.8463 43.0322 36.3334 43.1012 36.682 43.31C36.9604 43.5877 37.03 43.8667 36.9604 44.2153H35.8463C35.9159 44.0065 35.7767 43.8667 35.7071 43.7977C35.5679 43.7275 35.3585 43.6579 35.0112 43.6579C34.6626 43.6579 34.4544 43.7269 34.2457 43.7977C34.1211 43.8518 34.0217 43.9511 33.9673 44.0755C33.9673 44.1445 34.0369 44.2153 34.1065 44.2843C34.2463 44.4241 34.5247 44.493 35.0808 44.562C35.5686 44.6322 35.9165 44.772 36.1949 44.841C36.4037 44.9808 36.5428 45.0498 36.682 45.2585C36.7516 45.3984 36.8212 45.6071 36.7516 45.8849C36.682 46.0937 36.5428 46.3024 36.3341 46.5112C36.0563 46.7212 35.7773 46.8598 35.499 46.93C35.151 47.0686 34.7334 47.1388 34.2463 47.1388C33.5504 47.1388 33.0626 46.999 32.7146 46.7902C32.4357 46.5118 32.2971 46.1651 32.2971 45.7476ZM37.309 47.0692L38.2833 43.1018H39.3967L38.4225 47.0692H37.309ZM39.7447 45.051C39.8143 44.7024 40.0231 44.3545 40.2325 44.0767C40.4412 43.868 40.65 43.6592 40.8588 43.52C41.1372 43.3802 41.4155 43.2422 41.6939 43.1714C42.0419 43.1024 42.4594 43.0328 42.8776 43.0328C43.7127 43.0328 44.2694 43.1714 44.687 43.589C45.1045 43.9375 45.1748 44.4253 45.0356 45.0516C44.8964 45.678 44.5484 46.1657 43.9911 46.5833C43.3647 46.9319 42.7378 47.14 41.9033 47.14C41.0676 47.14 40.5108 46.9313 40.0933 46.5833C39.7447 46.2341 39.6055 45.7476 39.7447 45.051ZM40.8588 45.051C40.7892 45.5375 40.8588 45.8165 41.0676 46.0949C41.2764 46.3037 41.6243 46.4435 42.0419 46.4435C42.529 46.4435 42.8776 46.3037 43.2249 46.0949C43.5735 45.8172 43.7817 45.5382 43.9215 45.051C43.9911 44.6335 43.9911 44.2855 43.7823 44.0071C43.5039 43.7984 43.2256 43.7281 42.7378 43.7281C42.25 43.7281 41.9027 43.7984 41.5547 44.0071C41.2068 44.2849 40.998 44.6335 40.8588 45.051ZM45.4531 47.0692L46.4274 43.1018H47.4719L49.0732 45.7476L49.6995 43.1018H50.7434L49.7685 47.0692H48.655L47.0537 44.4937L46.4274 47.0692H45.4531ZM54.2236 47.0692L55.0593 43.7281H53.4581L53.5973 43.1018H57.9132L57.7741 43.7281H56.1728L55.3377 47.0692H54.2236ZM57.7038 47.0692L58.6788 43.1018H62.7164L62.5076 43.7281H59.5841L59.3741 44.6335H62.0894L61.9508 45.2598H59.2361L58.9571 46.3739H62.0198L61.811 47.0692H57.7038ZM66.6148 45.6077L67.5891 45.8165C67.3803 46.2341 66.9627 46.582 66.5452 46.7908C66.1264 46.9996 65.6398 47.1394 65.0123 47.1394C64.317 47.1394 63.7596 46.9306 63.4117 46.5827C62.9941 46.2341 62.9251 45.7476 63.0631 45.12C63.2029 44.4247 63.5508 43.9369 64.1082 43.5883C64.6649 43.1708 65.3609 43.0322 66.1264 43.0322C66.7539 43.0322 67.3094 43.1708 67.658 43.4498C67.8668 43.5883 67.937 43.8673 68.0066 44.1451L66.8925 44.3539C66.8925 44.1451 66.7539 44.0065 66.6148 43.8673C66.406 43.7275 66.1972 43.7275 65.9182 43.7275C65.5007 43.7275 65.1527 43.7977 64.8054 44.0065C64.5264 44.2153 64.3176 44.5626 64.1778 45.0504C64.1088 45.5369 64.1088 45.8855 64.3176 46.0943C64.5264 46.3031 64.8054 46.4429 65.2229 46.4429C65.5007 46.4429 65.7797 46.3739 65.9884 46.2341C66.2662 46.0949 66.475 45.8861 66.6148 45.6077ZM68.2844 47.0692L69.2593 43.1018H70.3734L69.9558 44.6335H72.1132L72.5307 43.1018H73.5758L72.6009 47.0692H71.5564L71.974 45.3288H69.816L69.3984 47.0692H68.2844ZM73.7846 47.0692L74.7589 43.1018H75.8028L77.4034 45.7476L78.0298 43.1018H79.0743L78.1 47.0692H76.9859L75.4542 44.4937L74.7589 47.0692H73.7846ZM79.4918 45.051C79.6316 44.7024 79.7708 44.3545 80.0486 44.0767C80.206 43.8404 80.4217 43.6487 80.6749 43.52C80.9094 43.363 81.168 43.2452 81.4404 43.1714C81.8579 43.1024 82.2059 43.0328 82.6943 43.0328C83.4598 43.0328 84.0861 43.1714 84.4347 43.589C84.8523 43.9375 84.9908 44.4253 84.8523 45.0516C84.6435 45.678 84.2955 46.1657 83.7382 46.5833C83.1814 46.9319 82.4843 47.14 81.6498 47.14C80.8843 47.14 80.2579 46.9313 79.8404 46.5833C79.4918 46.2341 79.3526 45.7476 79.4918 45.051ZM80.6755 45.051C80.5357 45.5375 80.6065 45.8165 80.8153 46.0949C81.093 46.3037 81.372 46.4435 81.8592 46.4435C82.2767 46.4435 82.6955 46.3037 82.9733 46.0949C83.3219 45.8172 83.5996 45.5382 83.6698 45.051C83.8084 44.6335 83.7388 44.2855 83.53 44.0071C83.3213 43.7984 82.9733 43.7281 82.4849 43.7281C82.0673 43.7281 81.6498 43.7984 81.3018 44.0071C81.0235 44.2849 80.7457 44.6335 80.6755 45.051ZM85.1996 47.0692L86.1739 43.1018H87.288L86.4529 46.3739H89.2372L89.0986 47.0692H85.1996ZM90.0736 45.051C90.2121 44.7024 90.3513 44.3545 90.6297 44.0767C90.7873 43.8401 91.0035 43.6483 91.2572 43.52C91.535 43.3802 91.7438 43.2422 92.0228 43.1714C92.4346 43.0834 92.8543 43.0369 93.2754 43.0328C94.0409 43.0328 94.6673 43.1714 95.0848 43.589C95.4334 43.9375 95.5726 44.4253 95.4334 45.0516C95.2246 45.678 94.8767 46.1657 94.3193 46.5833C93.7632 46.9319 93.0667 47.14 92.2322 47.14C91.4667 47.14 90.8391 46.9313 90.4917 46.5833C90.0736 46.2341 89.9338 45.7476 90.0736 45.051ZM91.2566 45.051C91.1168 45.5375 91.1864 45.8165 91.3952 46.0949C91.6742 46.3037 91.9519 46.4435 92.4403 46.4435C92.8579 46.4435 93.2754 46.3037 93.5532 46.0949C93.9017 45.8172 94.1807 45.5382 94.2497 45.051C94.3895 44.6335 94.3187 44.2855 94.1099 44.0071C93.9011 43.7984 93.5532 43.7281 93.1356 43.7281C92.6491 43.7281 92.2315 43.7984 91.8829 44.0071C91.604 44.2849 91.3256 44.6335 91.2566 45.051ZM98.5651 45.6077L98.7738 44.9112H101.141L100.723 46.5118C100.445 46.6516 100.097 46.7908 99.6102 46.9306C99.1825 47.0673 98.7363 47.1377 98.2873 47.1394C97.7306 47.1394 97.313 46.9996 96.8955 46.8604C96.5469 46.6516 96.2679 46.4429 96.1299 46.0949C95.9901 45.7476 95.9901 45.3996 96.0597 45.051C96.1995 44.6335 96.4083 44.2855 96.6873 43.9369C97.0346 43.6592 97.4528 43.3802 97.8704 43.2416C98.2177 43.1018 98.7055 43.0328 99.192 43.0328C99.8885 43.0328 100.376 43.1018 100.724 43.3106C101.072 43.5194 101.211 43.7984 101.28 44.1457L100.097 44.3545C100.097 44.1457 99.9575 44.0071 99.8196 43.868C99.6108 43.7281 99.3318 43.7281 99.0541 43.7281C98.5663 43.7281 98.1487 43.7984 97.8002 44.0071C97.5224 44.2159 97.3136 44.5632 97.2434 44.9814C97.1049 45.4679 97.1745 45.8165 97.3832 46.0943C97.592 46.3031 97.871 46.4429 98.3575 46.4429C98.5663 46.4429 98.8453 46.3739 99.0541 46.3031C99.3318 46.2341 99.5406 46.1645 99.7494 46.0943L99.8892 45.6077H98.5651ZM103.09 47.0692L103.437 45.399L102.045 43.1018H103.368L104.203 44.6335L105.874 43.1018H107.127L104.551 45.399L104.134 47.0692H103.09ZM0.484741 39.6216H107.683L108.798 34.6787H1.59884L0.484741 39.6216Z" fill="#CCCCCC"/>
</svg>
