<svg width="64" height="64" viewBox="0 0 64 64" fill="none" xmlns="http://www.w3.org/2000/svg">
<g clip-path="url(#clip0_7_238)">
<path d="M62.7389 56.2209V56.3489H62.8582C62.8806 56.3492 62.9027 56.3436 62.9222 56.3326C62.93 56.3271 62.9363 56.3197 62.9405 56.3111C62.9447 56.3026 62.9466 56.2931 62.9462 56.2836C62.9466 56.2743 62.9446 56.265 62.9404 56.2566C62.9362 56.2483 62.93 56.2412 62.9222 56.2359C62.9029 56.2243 62.8807 56.2187 62.8582 56.2196H62.7389V56.2209ZM62.8595 56.1303C62.9107 56.1272 62.9613 56.1419 63.0029 56.1719C63.0195 56.1856 63.0327 56.2029 63.0415 56.2226C63.0502 56.2423 63.0542 56.2637 63.0531 56.2852C63.0539 56.3037 63.0507 56.3222 63.0437 56.3393C63.0368 56.3565 63.0262 56.372 63.0128 56.3847C62.9808 56.4126 62.9406 56.4293 62.8982 56.4324L63.0582 56.6148H62.935L62.7878 56.4337H62.7401V56.6148H62.6371V56.1306H62.8611L62.8595 56.1303ZM62.8275 56.7818C62.8815 56.7824 62.9351 56.7714 62.9846 56.7498C63.0324 56.7293 63.0758 56.6999 63.1126 56.6631C63.1495 56.6264 63.1789 56.583 63.1993 56.5351C63.2413 56.4337 63.2413 56.3197 63.1993 56.2183C63.1786 56.1706 63.1492 56.1272 63.1126 56.0903C63.0758 56.0536 63.0324 56.0242 62.9846 56.0036C62.9348 55.9832 62.8814 55.9729 62.8275 55.9735C62.7727 55.973 62.7184 55.9832 62.6675 56.0036C62.6187 56.0238 62.5742 56.0532 62.5366 56.0903C62.48 56.1484 62.4417 56.2218 62.4265 56.3015C62.4114 56.3811 62.4199 56.4635 62.4512 56.5383C62.4707 56.5863 62.4997 56.6299 62.5366 56.6663C62.5743 56.7034 62.6187 56.7328 62.6675 56.753C62.7181 56.7746 62.7725 56.7855 62.8275 56.785V56.7818ZM62.8275 55.857C62.9681 55.8569 63.1032 55.9121 63.2035 56.0106C63.2519 56.058 63.2904 56.1144 63.3168 56.1767C63.3441 56.2407 63.3582 56.3095 63.3582 56.3791C63.3582 56.4487 63.3441 56.5175 63.3168 56.5815C63.2898 56.6435 63.2513 56.6998 63.2035 56.7476C63.1544 56.7947 63.0973 56.8326 63.0349 56.8596C62.9693 56.8875 62.8987 56.9016 62.8275 56.9012C62.7554 56.9017 62.684 56.8876 62.6176 56.8596C62.5544 56.8332 62.4968 56.7952 62.4477 56.7476C62.3998 56.6981 62.3619 56.6398 62.336 56.5761C62.3086 56.5121 62.2945 56.4433 62.2945 56.3737C62.2945 56.3041 62.3086 56.2353 62.336 56.1713C62.3624 56.109 62.4009 56.0525 62.4493 56.0052C62.4977 55.9567 62.5555 55.9186 62.6192 55.8932C62.6856 55.8652 62.757 55.8511 62.8291 55.8516L62.8275 55.857ZM13.8292 53.9873C13.8292 53.0641 14.434 52.3056 15.4224 52.3056C16.3671 52.3056 17.0045 53.0314 17.0045 53.9873C17.0045 54.9431 16.3671 55.6689 15.4224 55.6689C14.434 55.6689 13.8292 54.9105 13.8292 53.9873V53.9873ZM18.0813 53.9873V51.36H16.9392V52C16.577 51.5271 16.0276 51.2304 15.2804 51.2304C13.8084 51.2304 12.6532 52.385 12.6532 53.9885C12.6532 55.5921 13.8077 56.7466 15.2804 56.7466C16.0272 56.7466 16.577 56.4497 16.9392 55.977V56.6148H18.08V53.9873H18.0813ZM56.6707 53.9873C56.6707 53.0641 57.2755 52.3056 58.2643 52.3056C59.2099 52.3056 59.8464 53.0314 59.8464 53.9873C59.8464 54.9431 59.2099 55.6689 58.2643 55.6689C57.2758 55.6689 56.6707 54.9105 56.6707 53.9873ZM60.9241 53.9873V49.2512H59.7811V52C59.4189 51.5271 58.8694 51.2304 58.1222 51.2304C56.6502 51.2304 55.495 52.385 55.495 53.9885C55.495 55.5921 56.6496 56.7466 58.1222 56.7466C58.8694 56.7466 59.4189 56.4497 59.7811 55.977V56.6148H60.9241V53.9873ZM32.256 52.2516C32.992 52.2516 33.4647 52.713 33.5853 53.5255H30.8602C30.9821 52.7671 31.4426 52.2516 32.2563 52.2516H32.256ZM32.2791 51.2276C30.7399 51.2276 29.6631 52.3476 29.6631 53.9857C29.6631 55.6558 30.7831 56.7438 32.3555 56.7438C33.1466 56.7438 33.8711 56.5463 34.5085 56.0078L33.9488 55.1614C33.5085 55.5134 32.9479 55.7108 32.4208 55.7108C31.6848 55.7108 31.0147 55.37 30.8499 54.4244H34.7498C34.761 54.2823 34.7725 54.1389 34.7725 53.9853C34.761 52.3479 33.7485 51.2272 32.2784 51.2272L32.2791 51.2276ZM46.0672 53.9853C46.0672 53.0621 46.672 52.3037 47.6605 52.3037C48.6051 52.3037 49.2426 53.0295 49.2426 53.9853C49.2426 54.9412 48.6051 55.667 47.6605 55.667C46.672 55.667 46.0669 54.9085 46.0669 53.9853H46.0672ZM50.319 53.9853V51.36H49.1776V52C48.8141 51.5271 48.2659 51.2304 47.5187 51.2304C46.0467 51.2304 44.8915 52.385 44.8915 53.9885C44.8915 55.5921 46.0461 56.7466 47.5187 56.7466C48.2659 56.7466 48.8141 56.4497 49.1776 55.977V56.6148H50.3194V53.9873L50.319 53.9853ZM39.6176 53.9853C39.6176 55.5786 40.7267 56.7434 42.4195 56.7434C43.2106 56.7434 43.7376 56.5674 44.3075 56.1172L43.759 55.194C43.3302 55.5022 42.88 55.667 42.383 55.667C41.4714 55.6558 40.801 54.9965 40.801 53.9853C40.801 52.9741 41.4714 52.3152 42.383 52.3037C42.8787 52.3037 43.329 52.4685 43.759 52.7767L44.3075 51.8535C43.7366 51.4032 43.2096 51.2272 42.4195 51.2272C40.7267 51.2272 39.6176 52.3917 39.6176 53.9853V53.9853ZM54.3408 51.2272C53.6819 51.2272 53.2528 51.5354 52.9562 51.9968V51.36H51.8243V56.6119H52.9677V53.6679C52.9677 52.7988 53.3411 52.3159 54.0877 52.3159C54.3321 52.3124 54.5749 52.3573 54.8019 52.448L55.1539 51.3716C54.9011 51.272 54.5715 51.2282 54.3402 51.2282L54.3408 51.2272ZM23.7277 51.7776C23.1783 51.4154 22.4211 51.2282 21.5859 51.2282C20.2554 51.2282 19.3987 51.866 19.3987 52.9095C19.3987 53.7658 20.0365 54.2941 21.2109 54.4589L21.7504 54.5357C22.3767 54.6237 22.6723 54.7885 22.6723 55.0852C22.6723 55.4913 22.2563 55.723 21.4752 55.723C20.6842 55.723 20.1133 55.4702 19.7283 55.1735L19.1917 56.0641C19.8179 56.5255 20.609 56.7457 21.4656 56.7457C22.9824 56.7457 23.8615 56.0314 23.8615 55.0314C23.8615 54.1082 23.1696 53.6253 22.0266 53.4605L21.4883 53.3825C20.9939 53.3185 20.5978 53.2189 20.5978 52.8669C20.5978 52.4829 20.9712 52.2519 21.5978 52.2519C22.2682 52.2519 22.9171 52.5047 23.2352 52.7021L23.7296 51.7789L23.7277 51.7776ZM38.464 51.2292C37.8051 51.2292 37.376 51.5373 37.0806 51.9988V51.36H35.9488V56.6119H37.0909V53.6679C37.0909 52.7988 37.4643 52.3159 38.2109 52.3159C38.4554 52.3124 38.6981 52.3573 38.9251 52.448L39.2771 51.3716C39.0243 51.272 38.6947 51.2282 38.4634 51.2282L38.464 51.2292ZM28.7181 51.36H26.8506V49.7667H25.696V51.36H24.6307V52.4039H25.696V54.7997C25.696 56.0183 26.169 56.7441 27.52 56.7441C28.0157 56.7441 28.5866 56.5905 28.9488 56.338L28.6189 55.3601C28.2781 55.5575 27.9047 55.657 27.6077 55.657C27.0368 55.657 26.8506 55.305 26.8506 54.778V52.4048H28.7181V51.36ZM11.6432 56.6132V53.3172C11.6432 52.0759 10.8522 51.2407 9.577 51.2295C8.9066 51.2183 8.21508 51.4269 7.73092 52.1639C7.36868 51.5815 6.7978 51.2295 5.99524 51.2295C5.43428 51.2295 4.88612 51.3943 4.457 52.0093V51.36H3.31396V56.6119H4.46596V53.6999C4.46596 52.7882 4.97156 52.3037 5.75236 52.3037C6.51076 52.3037 6.89444 52.7981 6.89444 53.6884V56.6113H8.049V53.6993C8.049 52.7876 8.57604 52.3031 9.33412 52.3031C10.114 52.3031 10.4861 52.7975 10.4861 53.6877V56.6106L11.6432 56.6132Z" fill="#231F20"/>
<path d="M63.39 39.143V38.375H63.19L62.9587 38.902L62.7286 38.375H62.5279V39.143H62.67V38.5644L62.8863 39.0636H63.0335L63.2499 38.5632V39.143H63.3907H63.39ZM62.1212 39.143V38.5065H62.3772V38.3769H61.7231V38.5065H61.9791V39.143H62.1199H62.1212Z" fill="#F79410"/>
<path d="M40.6582 42.4369H23.3507V11.3328H40.6585L40.6582 42.4369Z" fill="#757575"/>
<path d="M24.448 26.8854C24.448 20.576 27.4022 14.9555 32.0026 11.3335C28.5204 8.58769 24.2134 7.09747 19.7789 7.10403C8.85504 7.10403 0 15.9603 0 26.8854C0 37.8105 8.85504 46.6668 19.7789 46.6668C24.2135 46.6735 28.5206 45.1833 32.0029 42.4374C27.4029 38.816 24.448 33.1952 24.448 26.8854Z" fill="#4B4B4B"/>
<path d="M64.0078 26.8854C64.0078 37.8105 55.1528 46.6669 44.229 46.6669C39.7939 46.6734 35.4864 45.1832 32.0034 42.4374C36.605 38.8153 39.5592 33.1952 39.5592 26.8854C39.5592 20.5757 36.605 14.9555 32.0034 11.3335C35.4863 8.58778 39.7937 7.09759 44.2287 7.10402C55.1525 7.10402 64.0075 15.9603 64.0075 26.8854" fill="#A9A9A9"/>
</g>
<defs>
<clipPath id="clip0_7_238">
<rect width="64" height="64" fill="white"/>
</clipPath>
</defs>
</svg>
