<svg width="96" height="50" viewBox="0 0 96 50" fill="none" xmlns="http://www.w3.org/2000/svg">
<path fill-rule="evenodd" clip-rule="evenodd" d="M16.0415 30.6083C15.2805 30.6083 14.6847 31.1407 14.6847 31.9175C14.6847 32.6949 15.2836 33.2242 16.0415 33.2242C16.799 33.2242 17.3984 32.6913 17.3984 31.9175C17.3984 31.1407 16.802 30.6083 16.0415 30.6083ZM16.0415 32.8499C15.4989 32.8499 15.0964 32.4535 15.0964 31.9175C15.0964 31.3821 15.4958 30.9826 16.0415 30.9826C16.5806 30.9826 16.9861 31.3882 16.9861 31.9175C16.9861 32.4438 16.577 32.8499 16.0415 32.8499ZM29.2441 26.0289H22.639L23.3898 14.5483L19.1004 26.0289H12.9668L22.6988 0.0793457H29.2252L28.4719 11.7175L32.8426 0.0793457H38.9767L29.2441 26.0289ZM30.041 26.0289L39.7725 0.0793457H45.9061L36.1746 26.0289H30.041Z" fill="#CCCCCC"/>
<path fill-rule="evenodd" clip-rule="evenodd" d="M12.2594 17.0844C3.68835 27.1499 -4.39688 40.5428 2.74476 46.7101C9.66495 52.6867 18.3148 49.1481 24.2126 46.7889C30.1105 44.4297 95.2991 16.1209 95.2991 16.1209C95.9282 15.8063 95.8105 15.4131 95.024 15.6094C94.7069 15.6887 24.0556 34.8357 24.0556 34.8357C15.0902 37.3525 4.86771 31.8674 12.2594 17.0844Z" fill="#CCCCCC"/>
<path fill-rule="evenodd" clip-rule="evenodd" d="M16.2727 32.0095C16.4629 32.0003 16.6117 31.9021 16.6117 31.6387C16.6117 31.2991 16.3898 31.2137 16.019 31.2137H15.4861V32.6217H15.8415V32.0223H15.9014L16.2251 32.6217H16.6337L16.2727 32.0095ZM16.0446 31.7814H15.842V31.4546H16.0129C16.1177 31.4546 16.2379 31.4669 16.2379 31.6034C16.2379 31.7497 16.1683 31.7814 16.0446 31.7814ZM77.6987 0C76.9377 0 76.3419 0.532911 76.3419 1.30926C76.3419 2.08613 76.9413 2.61546 77.6987 2.61546C78.4561 2.61546 79.0555 2.08255 79.0555 1.30926C79.0561 0.532911 78.4602 0 77.6987 0ZM77.6987 2.24212C77.1561 2.24212 76.7536 1.84576 76.7536 1.30978C76.7536 0.774308 77.153 0.374879 77.6987 0.374879C78.2378 0.374879 78.6438 0.780446 78.6438 1.30978C78.6438 1.83604 78.2347 2.24212 77.6987 2.24212Z" fill="#CCCCCC"/>
<path fill-rule="evenodd" clip-rule="evenodd" d="M77.9304 1.4014C78.1206 1.39219 78.27 1.294 78.27 1.03061C78.27 0.691019 78.0475 0.605609 77.6772 0.605609H77.1443V2.01307H77.4992V1.41418H77.5596L77.8828 2.01307H78.292L77.9304 1.4014ZM77.7018 1.1733H77.4992V0.846494H77.6706C77.7749 0.846494 77.8956 0.859279 77.8956 0.995832C77.8956 1.14159 77.8255 1.1733 77.7018 1.1733ZM73.6574 4.40453L75.3057 0.0793457H56.5904L50.1642 7.86436L53.131 0.0793457H46.9187L37.2649 26.0289H43.3985L47.5201 15.1773L47.8024 26.0289L66.6226 25.988L68.4142 20.9964H61.2587L63.6098 14.7058H69.5071L71.3217 9.86969H65.4243L67.446 4.40453H73.6574ZM53.8875 24.2987L53.4942 10.7739L62.768 0.5918L53.8875 24.2987Z" fill="#CCCCCC"/>
</svg>
