<svg width="128" height="59" viewBox="0 0 128 59" fill="none" xmlns="http://www.w3.org/2000/svg">
<path fill-rule="evenodd" clip-rule="evenodd" d="M71.2464 18.3138V19.3895H74.4713C75.4642 19.3895 75.7947 19.6379 75.7947 20.6301V21.3746C75.7947 22.2839 75.4642 22.5323 74.4713 22.5323H71.2464C70.2536 22.5323 70.0044 22.2839 70.0044 21.3746V21.209L70.9973 20.9613V21.6222H74.7197V20.3817H71.4941C70.5012 20.3817 70.1708 20.1333 70.1708 19.1411V18.645C70.1708 17.6522 70.5012 17.4045 71.4941 17.4045H74.3892C75.2993 17.4045 75.7126 17.6522 75.7126 18.4802V18.645L74.6369 18.8934V18.3138H71.2464ZM81.0874 17.4045H82.2459V22.5316H81.0874V17.4045ZM88.4487 17.4045H89.6064V21.6215H93.493V22.5316H88.4487V17.4045ZM97.0498 17.4045H98.456L100.523 21.1254L102.509 17.4045H103.749L100.936 22.5316H100.026L97.0498 17.4045ZM108.793 17.4045H114.088V18.231H109.952V19.3888H112.35V20.2989H109.952V21.6215H114.088V22.5316H108.793V17.4045ZM123.764 18.231C124.094 18.231 124.259 18.3131 124.259 18.6443V19.306C124.259 19.6365 124.094 19.7193 123.764 19.7193H121.034V18.231H123.764ZM119.876 22.5316H121.034V20.6294H122.191L124.259 22.5316H125.997L123.598 20.6294H124.259C125.085 20.6294 125.417 20.2989 125.417 19.6372V18.3966C125.417 17.6522 125.085 17.4045 124.259 17.4045H119.875V22.5316H119.876ZM110.945 37.9144L105.073 27.7422H105.569V26.9978H100.936V27.7422H101.599L95.8921 37.9144H94.7336V38.6596H99.1997V37.9144H98.5388L99.5316 36.0964H106.892L107.885 37.9144H107.305V38.6596H111.854V37.9144H110.945ZM100.689 33.9443L103.253 29.2305L105.733 33.9443H100.689ZM121.695 34.1934H123.268C125.005 34.1934 125.832 33.6138 125.832 31.96V29.2305C125.832 27.6594 125.005 26.9978 123.268 26.9978H112.35V27.7422H113.26V37.9144H112.35V38.6596H116.899V37.9144H115.906V34.1934H118.553L123.185 38.6596H127.072L121.695 34.1934ZM115.906 32.2091V28.9828H122.027C122.854 28.9828 123.268 29.1477 123.268 29.8929V31.299C123.268 32.1256 122.855 32.2091 122.027 32.2091H115.906ZM97.5459 26.9978H84.1474V29.8101H84.8926V29.0656H89.4401V37.9144H88.5308V38.6596H93.0797V37.9144H92.1696V29.0656H96.8021V29.8101H97.5459V26.9978ZM75.8768 47.9224H75.133V43.4562C74.8839 44.1186 73.644 46.5162 72.8996 47.9224H72.6504C71.9067 46.5162 70.7489 44.2 70.5833 43.4562V47.9224H69.9224V42.4634H70.7489C71.4927 43.8695 72.1551 45.3585 72.8988 46.9295C73.6426 45.3585 74.3878 43.8695 75.2151 42.4634H75.876V47.9224H75.8768ZM78.5235 44.4491C79.4336 44.4491 79.682 45.1929 79.682 45.9366C79.682 46.6818 79.4328 47.5091 78.5235 47.5091C77.6141 47.5091 77.3664 46.6826 77.3664 45.9366C77.3664 45.1929 77.6141 44.4491 78.5235 44.4491ZM78.5235 48.0052C79.682 48.0052 80.4264 47.1786 80.4264 45.9366C80.4264 44.6961 79.5164 43.9523 78.5235 43.9523C77.5306 43.9523 76.5392 44.6961 76.5392 45.9366C76.5392 47.1786 77.3664 48.0052 78.5235 48.0052ZM83.8169 47.5091C83.4036 47.8396 83.0732 48.0052 82.5764 48.0052C81.6663 48.0052 81.1702 47.5091 81.1702 46.5162V44.0358H81.8326V46.3506C81.8326 47.0958 82.1631 47.5091 82.824 47.5091C83.4036 47.5091 83.8169 47.0958 83.8169 46.3506V44.0358H84.5607V47.9224H83.8169V47.5091ZM86.216 44.5319C86.6292 44.1186 87.126 43.9523 87.5393 43.9523C88.4494 43.9523 88.9455 44.4484 88.9455 45.4398V47.9217H88.2831V45.6054C88.2831 44.8617 87.9526 44.4484 87.2902 44.4484C86.712 44.4484 86.216 44.8617 86.216 45.6054V47.9217H85.5536V44.0351H86.216V44.5319ZM90.8463 44.0358H91.8392V44.4491H90.8463V46.6826C90.8463 47.1786 90.9291 47.5091 91.4259 47.5091C91.6736 47.5091 91.8392 47.5091 91.922 47.4263L92.0868 47.7568C91.8392 47.9224 91.5915 48.0059 91.3431 48.0059C90.5165 48.0059 90.1025 47.5926 90.1025 46.7639V44.4491H89.6064V44.0358H90.1025V43.043L90.8463 42.7938V44.0358ZM94.8164 45.6062C94.8992 46.8467 94.2382 47.5091 93.7421 47.5091C93.493 47.5091 93.1625 47.26 93.1625 46.8467C93.1625 46.3506 93.493 46.0202 94.1554 45.8538L94.8164 45.6062ZM94.8164 47.26C94.8164 47.5091 94.8164 47.7561 94.8992 47.9224H95.7257C95.5609 47.6733 95.5608 47.26 95.5608 47.0123V45.2757C95.5608 44.1186 94.6508 43.9523 94.0719 43.9523C93.493 43.9523 93.079 44.1179 92.7485 44.4484L92.9962 44.7789C93.2453 44.6133 93.5758 44.3656 93.9891 44.3656C94.4024 44.3656 94.8156 44.6961 94.8156 45.1922L93.8228 45.4398C93.079 45.689 92.4994 46.185 92.4994 46.846C92.4994 47.5912 92.9141 48.0045 93.5751 48.0045C93.767 48.0005 93.9556 47.9539 94.1273 47.8681C94.299 47.7823 94.4495 47.6595 94.568 47.5084L94.8164 47.26ZM96.6358 44.0358H97.2982V47.9224H96.6358V44.0358ZM96.553 42.7125C96.553 42.5469 96.7186 42.2992 96.9663 42.2992C97.2982 42.2992 97.4624 42.5469 97.4624 42.7125C97.4624 42.9602 97.2975 43.2086 96.9663 43.2086C96.6358 43.2086 96.553 42.9602 96.553 42.7125ZM99.0348 44.5319C99.4481 44.1186 99.9449 43.9523 100.358 43.9523C101.268 43.9523 101.763 44.4484 101.763 45.4398V47.9217H101.102V45.6054C101.102 44.8617 100.771 44.4484 100.109 44.4484C99.5309 44.4484 99.0348 44.8617 99.0348 45.6054V47.9217H98.3724V44.0351H99.0348V44.5319ZM105.899 42.9602H106.562C107.058 42.9602 107.472 43.2906 107.472 43.953C107.472 44.3663 107.306 45.1101 106.313 45.1101H105.9V42.9602H105.899ZM105.155 47.9224H105.899V45.689H106.725L107.966 48.0052L108.711 47.8396L107.388 45.4406C107.884 45.1101 108.298 44.6968 108.298 43.8695C108.298 42.8766 107.635 42.4634 106.725 42.4634H105.154V47.9224H105.155ZM109.786 45.5234C109.786 45.0273 110.118 44.4491 110.862 44.4491C111.441 44.4491 111.772 44.9452 111.772 45.5234H109.786ZM112.35 46.0202C112.433 45.0273 112.019 43.953 110.862 43.953C109.952 43.953 108.959 44.5326 108.959 45.9374C108.959 47.2607 109.786 48.0059 111.028 48.0059C111.441 48.0059 111.937 47.8403 112.35 47.5926L112.102 47.1794C111.854 47.427 111.441 47.5098 111.028 47.5098C110.283 47.5098 109.703 46.8474 109.703 46.0209H112.35V46.0202ZM115.245 44.614C114.997 44.4491 114.749 44.3663 114.501 44.3663C114.252 44.3663 114.005 44.5319 114.005 44.8624C114.005 45.1929 114.336 45.3585 114.749 45.689C115.245 46.0194 115.575 46.3499 115.575 46.9295C115.575 47.5919 114.997 48.0052 114.252 48.0052C113.756 48.0052 113.259 47.8396 113.011 47.5091L113.342 47.1786C113.591 47.3435 113.922 47.5091 114.252 47.5091C114.583 47.5091 114.914 47.3435 114.914 47.013C114.914 46.517 114.501 46.3506 114.088 46.0202C113.673 45.7725 113.26 45.4406 113.26 44.9459C113.26 44.2835 113.839 43.953 114.583 43.953C114.998 43.953 115.328 44.1186 115.576 44.2835L115.245 44.614ZM118.139 44.4491C119.049 44.4491 119.298 45.1929 119.298 45.9366C119.298 46.6818 119.049 47.5091 118.139 47.5091C117.23 47.5091 116.982 46.6826 116.982 45.9366C116.982 45.1929 117.229 44.4491 118.139 44.4491ZM118.139 48.0052C119.298 48.0052 120.125 47.1786 120.125 45.9366C120.125 44.6961 119.132 43.9523 118.139 43.9523C117.148 43.9523 116.238 44.6961 116.238 45.9366C116.238 47.1786 116.982 48.0052 118.139 48.0052ZM121.531 44.5319L121.779 44.2C121.945 44.0351 122.192 43.9523 122.359 43.9523C122.606 43.9523 122.855 44.0351 123.019 44.2828L122.689 44.7789C122.523 44.6961 122.359 44.6133 122.193 44.6133C121.862 44.6133 121.532 44.9452 121.532 45.8538V47.9224H120.787V44.0358H121.532V44.5319H121.531ZM124.591 44.0358H125.665V44.4491H124.591V46.6826C124.591 47.1786 124.673 47.5091 125.169 47.5091C125.419 47.5091 125.583 47.5091 125.665 47.4263L125.831 47.7568C125.582 47.9224 125.335 48.0059 125.086 48.0059C124.259 48.0059 123.929 47.5926 123.929 46.7639V44.4491H123.351V44.0358H123.929V43.043L124.591 42.7938V44.0358ZM79.9296 31.4639H72.6512V28.9828H80.2601V30.3062L82.6592 29.7266V29.4789V26.9978H81.914V27.411C81.4186 27.0806 80.7569 26.915 79.764 26.915H73.148C70.998 26.915 70.2536 27.4938 70.2536 29.7266V30.9671C70.2536 33.2006 70.9973 33.7794 73.148 33.7794H80.4264V36.4262H72.2379V35.02L69.8403 35.5161V35.8466C69.8403 37.9965 70.5012 38.5761 72.7347 38.5761H79.9304C82.0803 38.5761 82.8248 37.9965 82.8248 35.8466V34.2755C82.824 32.0435 82.0803 31.4639 79.9296 31.4639ZM29.976 21.5394C27.6605 17.2382 31.2994 13.7649 36.51 11.2017L32.954 2.68264C32.8712 2.35215 32.1267 0.532715 32.1267 0.532715C32.1267 0.532715 31.3001 2.35215 31.2173 2.68264L23.7732 20.4645L5.08204 22.3667C4.66876 22.4495 2.93212 22.6972 2.93212 22.6972C2.93212 22.6972 4.42036 23.9378 4.58596 24.1034L13.6011 31.5467C18.0672 30.3897 25.5106 28.4867 28.3229 27.2462C30.7205 26.1712 31.7127 24.765 29.976 21.5394ZM60.908 22.6972C60.908 22.6972 59.2534 22.4495 58.8401 22.3667L40.3973 20.4645L37.1962 12.921L36.6728 13.2062C33.7186 15.04 32.1296 18.1655 36.6749 23.4417C41.3888 29.0656 37.7506 33.6138 33.3672 37.3362C31.465 38.9073 20.0516 47.7568 15.1721 51.4792L14.262 55.6134C14.18 55.9454 13.7667 57.8469 13.7667 57.8469C13.7667 57.8469 15.5033 56.6898 15.6689 56.6063L32.1267 45.9374L48.254 56.8554C48.3368 57.0203 50.1562 58.0125 50.1562 58.0125C50.1562 58.0125 49.7429 56.1095 49.6601 55.8626L45.3588 35.6831L59.2534 24.1034C59.419 23.9378 60.908 22.6972 60.908 22.6972ZM37.063 12.5826L36.6749 11.5322C35.8484 11.9462 35.1867 12.3594 34.525 12.7727C34.111 13.0211 33.6977 13.3516 33.2016 13.6821C30.6377 15.7499 29.6463 18.3138 31.5478 21.6215C34.3594 26.4189 32.8712 28.486 29.6456 30.5538C29.3144 30.803 28.9011 31.0499 28.4878 31.299C27.9089 31.6295 27.33 31.96 26.6684 32.2905C25.2622 33.117 22.2022 34.5239 18.6461 36.0957C13.1871 38.4933 6.6538 41.14 4.00708 42.2157L0.533081 52.6362C2.60092 51.3957 5.9086 49.4934 9.63028 47.26L22.946 39.2385C24.8482 37.9965 26.6676 36.8394 28.3215 35.8466C28.9832 35.3505 29.6448 34.9365 30.2237 34.5232C31.8776 33.449 33.0353 32.5389 33.6142 32.0428C36.0125 29.7266 37.0882 26.2526 35.1032 23.441C30.7882 17.3354 33.4457 14.3546 36.8427 12.6856L37.063 12.5826Z" fill="#CCCCCC"/>
</svg>
