<svg width="43" height="43" viewBox="0 0 43 43" fill="none" xmlns="http://www.w3.org/2000/svg">
<path fill-rule="evenodd" clip-rule="evenodd" d="M21.1525 42C32.6662 42 42 32.8218 42 21.5C42 10.1782 32.6662 1 21.1525 1C9.63878 1 0.305054 10.1782 0.305054 21.5C0.305054 32.8218 9.63878 42 21.1525 42Z" fill="white" stroke="#C1C0C0" stroke-width="0.3"/>
<path d="M28.7796 16.539C28.1745 16.8 27.5298 16.973 26.8576 17.057C27.5491 16.651 28.0769 16.013 28.325 15.244C27.6803 15.622 26.9684 15.889 26.2098 16.038C25.5976 15.397 24.725 15 23.7732 15C21.9264 15 20.4396 16.474 20.4396 18.281C20.4396 18.541 20.462 18.791 20.5169 19.029C17.7437 18.896 15.2898 17.589 13.6413 15.598C13.3535 16.089 13.1847 16.651 13.1847 17.256C13.1847 18.392 13.7796 19.399 14.6664 19.982C14.1305 19.972 13.6047 19.819 13.1593 19.578C13.1593 19.588 13.1593 19.601 13.1593 19.614C13.1593 21.208 14.3155 22.532 15.8318 22.837C15.5603 22.91 15.2644 22.945 14.9572 22.945C14.7437 22.945 14.5281 22.933 14.3257 22.889C14.7579 24.188 15.9844 25.143 17.4427 25.174C16.3077 26.047 14.8667 26.573 13.3067 26.573C13.0332 26.573 12.7708 26.561 12.5084 26.528C13.9861 27.465 15.7372 28 17.6257 28C23.764 28 27.1199 23 27.1199 18.666C27.1199 18.521 27.1149 18.381 27.1077 18.242C27.7698 17.78 28.3261 17.203 28.7796 16.539Z" fill="#3E86F5"/>
</svg>
